REM DIRINDEX 1\2\4\8,1\2\4\9,1\2\4\10,1\2\5\11,1\2\5\12,1\2\5\13,1\2\5\14,1\2\5\15,1\3\6\16,1\3\6\17,1\3\6\18,1\3\7\19,1\3\7\20,1\3\7\21,1\3\7\22,1\3\7\23
REM DIRNAME "folder01","folder02","folder03","folder04","folder05","folder06","folder07","folder08","folder09","folder10","folder11","folder12","folder13","folder14","folder15","folder16","folder17","folder18","folder19","folder20","folder21","folder22","folder23"
TITLE ""
FILE "LR_black_phrase_06.mp3" MP3
  TRACK 01 AUDIO
    TITLE "0:"
    INDEX 01 00:00:00
  TRACK 02 AUDIO
    TITLE "11:cjc171_05501"
    INDEX 01 00:00:18
  TRACK 03 AUDIO
    TITLE "0:"
    INDEX 01 00:01:37
  TRACK 04 AUDIO
    TITLE "12:cjc171_05502"
    INDEX 01 00:02:01
  TRACK 05 AUDIO
    TITLE "0:"
    INDEX 01 00:04:24
  TRACK 06 AUDIO
    TITLE "13:cjc171_05503"
    INDEX 01 00:05:21
  TRACK 07 AUDIO
    TITLE "0:"
    INDEX 01 00:07:04
  TRACK 08 AUDIO
    TITLE "14:cjc171_05504"
    INDEX 01 00:07:44
  TRACK 09 AUDIO
    TITLE "0:"
    INDEX 01 00:09:29
  TRACK 10 AUDIO
    TITLE "15:cjc171_05505"
    INDEX 01 00:09:58
  TRACK 11 AUDIO
    TITLE "0:"
    INDEX 01 00:11:43
  TRACK 12 AUDIO
    TITLE "11:cjc171_05506"
    INDEX 01 00:12:47
  TRACK 13 AUDIO
    TITLE "0:"
    INDEX 01 00:13:72
  TRACK 14 AUDIO
    TITLE "12:cjc171_05507"
    INDEX 01 00:14:36
  TRACK 15 AUDIO
    TITLE "0:"
    INDEX 01 00:18:18
  TRACK 16 AUDIO
    TITLE "13:cjc171_05508"
    INDEX 01 00:19:17
  TRACK 17 AUDIO
    TITLE "0:"
    INDEX 01 00:22:06
  TRACK 18 AUDIO
    TITLE "14:cjc171_05509"
    INDEX 01 00:22:45
  TRACK 19 AUDIO
    TITLE "0:"
    INDEX 01 00:25:04
  TRACK 20 AUDIO
    TITLE "15:cjc171_05510"
    INDEX 01 00:25:32
  TRACK 21 AUDIO
    TITLE "0:"
    INDEX 01 00:27:66
  TRACK 22 AUDIO
    TITLE "11:cjc171_05511"
    INDEX 01 00:28:69
  TRACK 23 AUDIO
    TITLE "0:"
    INDEX 01 00:30:04
  TRACK 24 AUDIO
    TITLE "12:cjc171_05512"
    INDEX 01 00:30:47
  TRACK 25 AUDIO
    TITLE "0:"
    INDEX 01 00:33:06
  TRACK 26 AUDIO
    TITLE "13:cjc171_05513"
    INDEX 01 00:34:01
  TRACK 27 AUDIO
    TITLE "0:"
    INDEX 01 00:36:20
  TRACK 28 AUDIO
    TITLE "14:cjc171_05514"
    INDEX 01 00:36:57
  TRACK 29 AUDIO
    TITLE "0:"
    INDEX 01 00:39:22
  TRACK 30 AUDIO
    TITLE "15:cjc171_05515"
    INDEX 01 00:39:51
  TRACK 31 AUDIO
    TITLE "0:"
    INDEX 01 00:42:13
  TRACK 32 AUDIO
    TITLE "11:cjc171_05516"
    INDEX 01 00:43:18
  TRACK 33 AUDIO
    TITLE "0:"
    INDEX 01 00:44:39
  TRACK 34 AUDIO
    TITLE "12:cjc171_05517"
    INDEX 01 00:45:05
  TRACK 35 AUDIO
    TITLE "0:"
    INDEX 01 00:47:08
  TRACK 36 AUDIO
    TITLE "13:cjc171_05518"
    INDEX 01 00:48:07
  TRACK 37 AUDIO
    TITLE "0:"
    INDEX 01 00:50:18
  TRACK 38 AUDIO
    TITLE "14:cjc171_05519"
    INDEX 01 00:50:57
  TRACK 39 AUDIO
    TITLE "0:"
    INDEX 01 00:52:74
  TRACK 40 AUDIO
    TITLE "15:cjc171_05520"
    INDEX 01 00:53:28
  TRACK 41 AUDIO
    TITLE "0:"
    INDEX 01 00:55:45
  TRACK 42 AUDIO
    TITLE "11:cjc171_05521"
    INDEX 01 00:56:48
  TRACK 43 AUDIO
    TITLE "0:"
    INDEX 01 00:57:53
  TRACK 44 AUDIO
    TITLE "12:cjc171_05522"
    INDEX 01 00:58:19
  TRACK 45 AUDIO
    TITLE "0:"
    INDEX 01 01:01:04
  TRACK 46 AUDIO
    TITLE "13:cjc171_05523"
    INDEX 01 01:02:06
  TRACK 47 AUDIO
    TITLE "0:"
    INDEX 01 01:04:02
  TRACK 48 AUDIO
    TITLE "14:cjc171_05524"
    INDEX 01 01:04:42
  TRACK 49 AUDIO
    TITLE "0:"
    INDEX 01 01:06:39
  TRACK 50 AUDIO
    TITLE "15:cjc171_05525"
    INDEX 01 01:06:70
  TRACK 51 AUDIO
    TITLE "0:"
    INDEX 01 01:08:67
  TRACK 52 AUDIO
    TITLE "11:cjc171_05526"
    INDEX 01 01:09:72
  TRACK 53 AUDIO
    TITLE "0:"
    INDEX 01 01:11:22
  TRACK 54 AUDIO
    TITLE "12:cjc171_05527"
    INDEX 01 01:11:63
  TRACK 55 AUDIO
    TITLE "0:"
    INDEX 01 01:13:21
  TRACK 56 AUDIO
    TITLE "13:cjc171_05528"
    INDEX 01 01:14:20
  TRACK 57 AUDIO
    TITLE "0:"
    INDEX 01 01:16:43
  TRACK 58 AUDIO
    TITLE "14:cjc171_05529"
    INDEX 01 01:17:09
  TRACK 59 AUDIO
    TITLE "0:"
    INDEX 01 01:19:35
  TRACK 60 AUDIO
    TITLE "15:cjc171_05530"
    INDEX 01 01:19:65
  TRACK 61 AUDIO
    TITLE "0:"
    INDEX 01 01:22:16
  TRACK 62 AUDIO
    TITLE "11:cjc171_05531"
    INDEX 01 01:23:19
  TRACK 63 AUDIO
    TITLE "0:"
    INDEX 01 01:24:31
  TRACK 64 AUDIO
    TITLE "12:cjc171_05532"
    INDEX 01 01:24:68
  TRACK 65 AUDIO
    TITLE "0:"
    INDEX 01 01:26:71
  TRACK 66 AUDIO
    TITLE "13:cjc171_05533"
    INDEX 01 01:27:68
  TRACK 67 AUDIO
    TITLE "0:"
    INDEX 01 01:29:71
  TRACK 68 AUDIO
    TITLE "14:cjc171_05534"
    INDEX 01 01:30:35
  TRACK 69 AUDIO
    TITLE "0:"
    INDEX 01 01:32:63
  TRACK 70 AUDIO
    TITLE "15:cjc171_05535"
    INDEX 01 01:33:20
  TRACK 71 AUDIO
    TITLE "0:"
    INDEX 01 01:35:50
  TRACK 72 AUDIO
    TITLE "11:cjc171_05536"
    INDEX 01 01:36:55
  TRACK 73 AUDIO
    TITLE "0:"
    INDEX 01 01:37:70
  TRACK 74 AUDIO
    TITLE "12:cjc171_05537"
    INDEX 01 01:38:35
  TRACK 75 AUDIO
    TITLE "0:"
    INDEX 01 01:39:56
  TRACK 76 AUDIO
    TITLE "13:cjc171_05538"
    INDEX 01 01:40:55
  TRACK 77 AUDIO
    TITLE "0:"
    INDEX 01 01:43:10
  TRACK 78 AUDIO
    TITLE "14:cjc171_05539"
    INDEX 01 01:43:52
  TRACK 79 AUDIO
    TITLE "0:"
    INDEX 01 01:46:26
  TRACK 80 AUDIO
    TITLE "15:cjc171_05540"
    INDEX 01 01:46:54
  TRACK 81 AUDIO
    TITLE "0:"
    INDEX 01 01:49:31
  TRACK 82 AUDIO
    TITLE "11:cjc171_05541"
    INDEX 01 01:50:34
  TRACK 83 AUDIO
    TITLE "0:"
    INDEX 01 01:52:01
  TRACK 84 AUDIO
    TITLE "12:cjc171_05542"
    INDEX 01 01:52:41
  TRACK 85 AUDIO
    TITLE "0:"
    INDEX 01 01:55:45
  TRACK 86 AUDIO
    TITLE "13:cjc171_05543"
    INDEX 01 01:56:44
  TRACK 87 AUDIO
    TITLE "0:"
    INDEX 01 01:58:65
  TRACK 88 AUDIO
    TITLE "14:cjc171_05544"
    INDEX 01 01:59:31
  TRACK 89 AUDIO
    TITLE "0:"
    INDEX 01 02:01:44
  TRACK 90 AUDIO
    TITLE "15:cjc171_05545"
    INDEX 01 02:01:75
  TRACK 91 AUDIO
    TITLE "0:"
    INDEX 01 02:04:14
  TRACK 92 AUDIO
    TITLE "11:cjc171_05546"
    INDEX 01 02:05:20
  TRACK 93 AUDIO
    TITLE "0:"
    INDEX 01 02:06:41
  TRACK 94 AUDIO
    TITLE "12:cjc171_05547"
    INDEX 01 02:07:11
  TRACK 95 AUDIO
    TITLE "0:"
    INDEX 01 02:10:54
  TRACK 96 AUDIO
    TITLE "13:cjc171_05548"
    INDEX 01 02:11:52
  TRACK 97 AUDIO
    TITLE "0:"
    INDEX 01 02:14:09
  TRACK 98 AUDIO
    TITLE "14:cjc171_05549"
    INDEX 01 02:14:50
  TRACK 99 AUDIO
    TITLE "0:"
    INDEX 01 02:16:31
  TRACK 100 AUDIO
    TITLE "15:cjc171_05550"
    INDEX 01 02:16:59
  TRACK 101 AUDIO
    TITLE "0:"
    INDEX 01 02:18:40
  TRACK 102 AUDIO
    TITLE "11:cjc171_05551"
    INDEX 01 02:19:40
  TRACK 103 AUDIO
    TITLE "0:"
    INDEX 01 02:20:53
  TRACK 104 AUDIO
    TITLE "12:cjc171_05552"
    INDEX 01 02:21:13
  TRACK 105 AUDIO
    TITLE "0:"
    INDEX 01 02:23:35
  TRACK 106 AUDIO
    TITLE "13:cjc171_05553"
    INDEX 01 02:24:31
  TRACK 107 AUDIO
    TITLE "0:"
    INDEX 01 02:26:32
  TRACK 108 AUDIO
    TITLE "14:cjc171_05554"
    INDEX 01 02:26:67
  TRACK 109 AUDIO
    TITLE "0:"
    INDEX 01 02:29:09
  TRACK 110 AUDIO
    TITLE "15:cjc171_05555"
    INDEX 01 02:29:26
  TRACK 111 AUDIO
    TITLE "0:"
    INDEX 01 02:31:43
  TRACK 112 AUDIO
    TITLE "11:cjc171_05556"
    INDEX 01 02:32:36
  TRACK 113 AUDIO
    TITLE "0:"
    INDEX 01 02:33:45
  TRACK 114 AUDIO
    TITLE "12:cjc171_05557"
    INDEX 01 02:34:04
  TRACK 115 AUDIO
    TITLE "0:"
    INDEX 01 02:36:30
  TRACK 116 AUDIO
    TITLE "13:cjc171_05558"
    INDEX 01 02:37:26
  TRACK 117 AUDIO
    TITLE "0:"
    INDEX 01 02:39:34
  TRACK 118 AUDIO
    TITLE "14:cjc171_05559"
    INDEX 01 02:39:70
  TRACK 119 AUDIO
    TITLE "0:"
    INDEX 01 02:42:33
  TRACK 120 AUDIO
    TITLE "15:cjc171_05560"
    INDEX 01 02:42:52
  TRACK 121 AUDIO
    TITLE "0:"
    INDEX 01 02:45:17
  TRACK 122 AUDIO
    TITLE "11:cjc171_05561"
    INDEX 01 02:46:13
  TRACK 123 AUDIO
    TITLE "0:"
    INDEX 01 02:47:18
  TRACK 124 AUDIO
    TITLE "12:cjc171_05562"
    INDEX 01 02:47:53
  TRACK 125 AUDIO
    TITLE "0:"
    INDEX 01 02:50:20
  TRACK 126 AUDIO
    TITLE "13:cjc171_05563"
    INDEX 01 02:51:20
  TRACK 127 AUDIO
    TITLE "0:"
    INDEX 01 02:54:14
  TRACK 128 AUDIO
    TITLE "14:cjc171_05564"
    INDEX 01 02:54:50
  TRACK 129 AUDIO
    TITLE "0:"
    INDEX 01 02:57:42
  TRACK 130 AUDIO
    TITLE "15:cjc171_05565"
    INDEX 01 02:57:62
  TRACK 131 AUDIO
    TITLE "0:"
    INDEX 01 03:00:56
  TRACK 132 AUDIO
    TITLE "11:cjc171_05566"
    INDEX 01 03:01:48
  TRACK 133 AUDIO
    TITLE "0:"
    INDEX 01 03:02:65
  TRACK 134 AUDIO
    TITLE "12:cjc171_05567"
    INDEX 01 03:03:25
  TRACK 135 AUDIO
    TITLE "0:"
    INDEX 01 03:04:62
  TRACK 136 AUDIO
    TITLE "13:cjc171_05568"
    INDEX 01 03:05:61
  TRACK 137 AUDIO
    TITLE "0:"
    INDEX 01 03:08:26
  TRACK 138 AUDIO
    TITLE "14:cjc171_05569"
    INDEX 01 03:08:60
  TRACK 139 AUDIO
    TITLE "0:"
    INDEX 01 03:11:28
  TRACK 140 AUDIO
    TITLE "15:cjc171_05570"
    INDEX 01 03:11:48
  TRACK 141 AUDIO
    TITLE "0:"
    INDEX 01 03:14:15
  TRACK 142 AUDIO
    TITLE "11:cjc171_05571"
    INDEX 01 03:15:11
  TRACK 143 AUDIO
    TITLE "0:"
    INDEX 01 03:16:26
  TRACK 144 AUDIO
    TITLE "12:cjc171_05572"
    INDEX 01 03:16:63
  TRACK 145 AUDIO
    TITLE "0:"
    INDEX 01 03:19:22
  TRACK 146 AUDIO
    TITLE "13:cjc171_05573"
    INDEX 01 03:20:22
  TRACK 147 AUDIO
    TITLE "0:"
    INDEX 01 03:21:72
  TRACK 148 AUDIO
    TITLE "14:cjc171_05574"
    INDEX 01 03:22:32
  TRACK 149 AUDIO
    TITLE "0:"
    INDEX 01 03:24:13
  TRACK 150 AUDIO
    TITLE "15:cjc171_05575"
    INDEX 01 03:24:33
  TRACK 151 AUDIO
    TITLE "0:"
    INDEX 01 03:26:14
  TRACK 152 AUDIO
    TITLE "11:cjc171_05576"
    INDEX 01 03:27:08
  TRACK 153 AUDIO
    TITLE "0:"
    INDEX 01 03:28:21
  TRACK 154 AUDIO
    TITLE "12:cjc171_05577"
    INDEX 01 03:28:56
  TRACK 155 AUDIO
    TITLE "0:"
    INDEX 01 03:30:69
  TRACK 156 AUDIO
    TITLE "13:cjc171_05578"
    INDEX 01 03:31:66
  TRACK 157 AUDIO
    TITLE "0:"
    INDEX 01 03:33:61
  TRACK 158 AUDIO
    TITLE "14:cjc171_05579"
    INDEX 01 03:34:24
  TRACK 159 AUDIO
    TITLE "0:"
    INDEX 01 03:36:34
  TRACK 160 AUDIO
    TITLE "15:cjc171_05580"
    INDEX 01 03:36:56
  TRACK 161 AUDIO
    TITLE "0:"
    INDEX 01 03:38:68
  TRACK 162 AUDIO
    TITLE "11:cjc171_05581"
    INDEX 01 03:39:60
  TRACK 163 AUDIO
    TITLE "0:"
    INDEX 01 03:40:67
  TRACK 164 AUDIO
    TITLE "12:cjc171_05582"
    INDEX 01 03:41:28
  TRACK 165 AUDIO
    TITLE "0:"
    INDEX 01 03:43:30
  TRACK 166 AUDIO
    TITLE "13:cjc171_05583"
    INDEX 01 03:44:30
  TRACK 167 AUDIO
    TITLE "0:"
    INDEX 01 03:45:69
  TRACK 168 AUDIO
    TITLE "14:cjc171_05584"
    INDEX 01 03:46:27
  TRACK 169 AUDIO
    TITLE "0:"
    INDEX 01 03:48:14
  TRACK 170 AUDIO
    TITLE "15:cjc171_05585"
    INDEX 01 03:48:36
  TRACK 171 AUDIO
    TITLE "0:"
    INDEX 01 03:50:23
  TRACK 172 AUDIO
    TITLE "11:cjc171_05586"
    INDEX 01 03:51:18
  TRACK 173 AUDIO
    TITLE "0:"
    INDEX 01 03:52:31
  TRACK 174 AUDIO
    TITLE "12:cjc171_05587"
    INDEX 01 03:52:65
  TRACK 175 AUDIO
    TITLE "0:"
    INDEX 01 03:55:10
  TRACK 176 AUDIO
    TITLE "13:cjc171_05588"
    INDEX 01 03:56:10
  TRACK 177 AUDIO
    TITLE "0:"
    INDEX 01 03:58:54
  TRACK 178 AUDIO
    TITLE "14:cjc171_05589"
    INDEX 01 03:59:14
  TRACK 179 AUDIO
    TITLE "0:"
    INDEX 01 04:01:71
  TRACK 180 AUDIO
    TITLE "15:cjc171_05590"
    INDEX 01 04:02:14
  TRACK 181 AUDIO
    TITLE "0:"
    INDEX 01 04:04:70
  TRACK 182 AUDIO
    TITLE "11:cjc171_05591"
    INDEX 01 04:05:65
  TRACK 183 AUDIO
    TITLE "0:"
    INDEX 01 04:07:03
  TRACK 184 AUDIO
    TITLE "12:cjc171_05592"
    INDEX 01 04:07:39
  TRACK 185 AUDIO
    TITLE "0:"
    INDEX 01 04:09:63
  TRACK 186 AUDIO
    TITLE "13:cjc171_05593"
    INDEX 01 04:10:63
  TRACK 187 AUDIO
    TITLE "0:"
    INDEX 01 04:12:67
  TRACK 188 AUDIO
    TITLE "14:cjc171_05594"
    INDEX 01 04:13:28
  TRACK 189 AUDIO
    TITLE "0:"
    INDEX 01 04:15:34
  TRACK 190 AUDIO
    TITLE "15:cjc171_05595"
    INDEX 01 04:15:54
  TRACK 191 AUDIO
    TITLE "0:"
    INDEX 01 04:17:61
  TRACK 192 AUDIO
    TITLE "11:cjc171_05596"
    INDEX 01 04:18:56
  TRACK 193 AUDIO
    TITLE "0:"
    INDEX 01 04:20:06
  TRACK 194 AUDIO
    TITLE "12:cjc171_05597"
    INDEX 01 04:20:41
  TRACK 195 AUDIO
    TITLE "0:"
    INDEX 01 04:23:28
  TRACK 196 AUDIO
    TITLE "13:cjc171_05598"
    INDEX 01 04:24:27
  TRACK 197 AUDIO
    TITLE "0:"
    INDEX 01 04:26:20
  TRACK 198 AUDIO
    TITLE "14:cjc171_05599"
    INDEX 01 04:26:52
  TRACK 199 AUDIO
    TITLE "0:"
    INDEX 01 04:28:39
  TRACK 200 AUDIO
    TITLE "15:cjc171_05600"
    INDEX 01 04:28:62
  TRACK 201 AUDIO
    TITLE "0:"
    INDEX 01 04:30:50
  TRACK 202 AUDIO
    TITLE "11:cjc171_05601"
    INDEX 01 04:31:53
  TRACK 203 AUDIO
    TITLE "0:"
    INDEX 01 04:32:72
  TRACK 204 AUDIO
    TITLE "12:cjc171_05602"
    INDEX 01 04:33:36
  TRACK 205 AUDIO
    TITLE "0:"
    INDEX 01 04:36:37
  TRACK 206 AUDIO
    TITLE "13:cjc171_05603"
    INDEX 01 04:37:36
  TRACK 207 AUDIO
    TITLE "0:"
    INDEX 01 04:40:34
  TRACK 208 AUDIO
    TITLE "14:cjc171_05604"
    INDEX 01 04:40:75
  TRACK 209 AUDIO
    TITLE "0:"
    INDEX 01 04:43:60
  TRACK 210 AUDIO
    TITLE "15:cjc171_05605"
    INDEX 01 04:44:14
  TRACK 211 AUDIO
    TITLE "0:"
    INDEX 01 04:46:74
  TRACK 212 AUDIO
    TITLE "11:cjc171_05606"
    INDEX 01 04:48:04
  TRACK 213 AUDIO
    TITLE "0:"
    INDEX 01 04:49:14
  TRACK 214 AUDIO
    TITLE "12:cjc171_05607"
    INDEX 01 04:49:55
  TRACK 215 AUDIO
    TITLE "0:"
    INDEX 01 04:51:75
  TRACK 216 AUDIO
    TITLE "13:cjc171_05608"
    INDEX 01 04:52:73
  TRACK 217 AUDIO
    TITLE "0:"
    INDEX 01 04:55:16
  TRACK 218 AUDIO
    TITLE "14:cjc171_05609"
    INDEX 01 04:55:55
  TRACK 219 AUDIO
    TITLE "0:"
    INDEX 01 04:58:07
  TRACK 220 AUDIO
    TITLE "15:cjc171_05610"
    INDEX 01 04:58:38
  TRACK 221 AUDIO
    TITLE "0:"
    INDEX 01 05:00:64
  TRACK 222 AUDIO
    TITLE "11:cjc171_05611"
    INDEX 01 05:01:70
  TRACK 223 AUDIO
    TITLE "0:"
    INDEX 01 05:03:20
  TRACK 224 AUDIO
    TITLE "12:cjc171_05612"
    INDEX 01 05:03:57
  TRACK 225 AUDIO
    TITLE "0:"
    INDEX 01 05:04:74
  TRACK 226 AUDIO
    TITLE "13:cjc171_05613"
    INDEX 01 05:05:71
  TRACK 227 AUDIO
    TITLE "0:"
    INDEX 01 05:08:46
  TRACK 228 AUDIO
    TITLE "14:cjc171_05614"
    INDEX 01 05:09:10
  TRACK 229 AUDIO
    TITLE "0:"
    INDEX 01 05:11:25
  TRACK 230 AUDIO
    TITLE "15:cjc171_05615"
    INDEX 01 05:11:54
  TRACK 231 AUDIO
    TITLE "0:"
    INDEX 01 05:13:69
  TRACK 232 AUDIO
    TITLE "11:cjc171_05616"
    INDEX 01 05:14:74
  TRACK 233 AUDIO
    TITLE "0:"
    INDEX 01 05:16:13
  TRACK 234 AUDIO
    TITLE "12:cjc171_05617"
    INDEX 01 05:16:50
  TRACK 235 AUDIO
    TITLE "0:"
    INDEX 01 05:19:07
  TRACK 236 AUDIO
    TITLE "13:cjc171_05618"
    INDEX 01 05:20:06
  TRACK 237 AUDIO
    TITLE "0:"
    INDEX 01 05:21:55
  TRACK 238 AUDIO
    TITLE "14:cjc171_05619"
    INDEX 01 05:22:21
  TRACK 239 AUDIO
    TITLE "0:"
    INDEX 01 05:24:22
  TRACK 240 AUDIO
    TITLE "15:cjc171_05620"
    INDEX 01 05:24:53
  TRACK 241 AUDIO
    TITLE "0:"
    INDEX 01 05:26:54
  TRACK 242 AUDIO
    TITLE "11:cjc171_05621"
    INDEX 01 05:27:59
  TRACK 243 AUDIO
    TITLE "0:"
    INDEX 01 05:29:13
  TRACK 244 AUDIO
    TITLE "12:cjc171_05622"
    INDEX 01 05:29:52
  TRACK 245 AUDIO
    TITLE "0:"
    INDEX 01 05:32:08
  TRACK 246 AUDIO
    TITLE "13:cjc171_05623"
    INDEX 01 05:33:07
  TRACK 247 AUDIO
    TITLE "0:"
    INDEX 01 05:35:20
  TRACK 248 AUDIO
    TITLE "14:cjc171_05624"
    INDEX 01 05:35:57
  TRACK 249 AUDIO
    TITLE "0:"
    INDEX 01 05:38:28
  TRACK 250 AUDIO
    TITLE "15:cjc171_05625"
    INDEX 01 05:38:57
  TRACK 251 AUDIO
    TITLE "0:"
    INDEX 01 05:41:28
  TRACK 252 AUDIO
    TITLE "11:cjc171_05626"
    INDEX 01 05:42:31
  TRACK 253 AUDIO
    TITLE "0:"
    INDEX 01 05:43:70
  TRACK 254 AUDIO
    TITLE "12:cjc171_05627"
    INDEX 01 05:44:34
  TRACK 255 AUDIO
    TITLE "0:"
    INDEX 01 05:45:63
  TRACK 256 AUDIO
    TITLE "13:cjc171_05628"
    INDEX 01 05:46:63
  TRACK 257 AUDIO
    TITLE "0:"
    INDEX 01 05:49:28
  TRACK 258 AUDIO
    TITLE "14:cjc171_05629"
    INDEX 01 05:49:67
  TRACK 259 AUDIO
    TITLE "0:"
    INDEX 01 05:52:71
  TRACK 260 AUDIO
    TITLE "15:cjc171_05630"
    INDEX 01 05:53:25
  TRACK 261 AUDIO
    TITLE "0:"
    INDEX 01 05:56:28
  TRACK 262 AUDIO
    TITLE "11:cjc171_05631"
    INDEX 01 05:57:33
  TRACK 263 AUDIO
    TITLE "0:"
    INDEX 01 05:58:58
  TRACK 264 AUDIO
    TITLE "12:cjc171_05632"
    INDEX 01 05:59:22
  TRACK 265 AUDIO
    TITLE "0:"
    INDEX 01 06:00:59
  TRACK 266 AUDIO
    TITLE "13:cjc171_05633"
    INDEX 01 06:01:54
  TRACK 267 AUDIO
    TITLE "0:"
    INDEX 01 06:04:47
  TRACK 268 AUDIO
    TITLE "14:cjc171_05634"
    INDEX 01 06:05:13
  TRACK 269 AUDIO
    TITLE "0:"
    INDEX 01 06:07:59
  TRACK 270 AUDIO
    TITLE "15:cjc171_05635"
    INDEX 01 06:08:13
  TRACK 271 AUDIO
    TITLE "0:"
    INDEX 01 06:10:59
  TRACK 272 AUDIO
    TITLE "11:cjc171_05636"
    INDEX 01 06:11:63
  TRACK 273 AUDIO
    TITLE "0:"
    INDEX 01 06:13:05
  TRACK 274 AUDIO
    TITLE "12:cjc171_05637"
    INDEX 01 06:13:42
  TRACK 275 AUDIO
    TITLE "0:"
    INDEX 01 06:14:61
  TRACK 276 AUDIO
    TITLE "13:cjc171_05638"
    INDEX 01 06:15:56
  TRACK 277 AUDIO
    TITLE "0:"
    INDEX 01 06:17:65
  TRACK 278 AUDIO
    TITLE "14:cjc171_05639"
    INDEX 01 06:18:29
  TRACK 279 AUDIO
    TITLE "0:"
    INDEX 01 06:20:24
  TRACK 280 AUDIO
    TITLE "15:cjc171_05640"
    INDEX 01 06:20:60
  TRACK 281 AUDIO
    TITLE "0:"
    INDEX 01 06:22:55
  TRACK 282 AUDIO
    TITLE "11:cjc171_05641"
    INDEX 01 06:23:60
  TRACK 283 AUDIO
    TITLE "0:"
    INDEX 01 06:25:02
  TRACK 284 AUDIO
    TITLE "12:cjc171_05642"
    INDEX 01 06:25:39
  TRACK 285 AUDIO
    TITLE "0:"
    INDEX 01 06:26:60
  TRACK 286 AUDIO
    TITLE "13:cjc171_05643"
    INDEX 01 06:27:60
  TRACK 287 AUDIO
    TITLE "0:"
    INDEX 01 06:29:64
  TRACK 288 AUDIO
    TITLE "14:cjc171_05644"
    INDEX 01 06:30:27
  TRACK 289 AUDIO
    TITLE "0:"
    INDEX 01 06:32:55
  TRACK 290 AUDIO
    TITLE "15:cjc171_05645"
    INDEX 01 06:33:09
  TRACK 291 AUDIO
    TITLE "0:"
    INDEX 01 06:35:38
  TRACK 292 AUDIO
    TITLE "11:cjc171_05646"
    INDEX 01 06:36:43
  TRACK 293 AUDIO
    TITLE "0:"
    INDEX 01 06:37:60
  TRACK 294 AUDIO
    TITLE "12:cjc171_05647"
    INDEX 01 06:38:24
  TRACK 295 AUDIO
    TITLE "0:"
    INDEX 01 06:40:74
  TRACK 296 AUDIO
    TITLE "13:cjc171_05648"
    INDEX 01 06:41:73
  TRACK 297 AUDIO
    TITLE "0:"
    INDEX 01 06:44:27
  TRACK 298 AUDIO
    TITLE "14:cjc171_05649"
    INDEX 01 06:44:68
  TRACK 299 AUDIO
    TITLE "0:"
    INDEX 01 06:47:39
  TRACK 300 AUDIO
    TITLE "15:cjc171_05650"
    INDEX 01 06:47:70
  TRACK 301 AUDIO
    TITLE "0:"
    INDEX 01 06:50:43
  TRACK 302 AUDIO
    TITLE "11:cjc171_05651"
    INDEX 01 06:51:44
  TRACK 303 AUDIO
    TITLE "0:"
    INDEX 01 06:52:61
  TRACK 304 AUDIO
    TITLE "12:cjc171_05652"
    INDEX 01 06:53:26
  TRACK 305 AUDIO
    TITLE "0:"
    INDEX 01 06:54:60
  TRACK 306 AUDIO
    TITLE "13:cjc171_05653"
    INDEX 01 06:55:60
  TRACK 307 AUDIO
    TITLE "0:"
    INDEX 01 06:58:01
  TRACK 308 AUDIO
    TITLE "14:cjc171_05654"
    INDEX 01 06:58:35
  TRACK 309 AUDIO
    TITLE "0:"
    INDEX 01 07:00:65
  TRACK 310 AUDIO
    TITLE "15:cjc171_05655"
    INDEX 01 07:01:15
  TRACK 311 AUDIO
    TITLE "0:"
    INDEX 01 07:03:44
  TRACK 312 AUDIO
    TITLE "11:cjc171_05656"
    INDEX 01 07:04:45
  TRACK 313 AUDIO
    TITLE "0:"
    INDEX 01 07:05:64
  TRACK 314 AUDIO
    TITLE "12:cjc171_05657"
    INDEX 01 07:06:28
  TRACK 315 AUDIO
    TITLE "0:"
    INDEX 01 07:07:53
  TRACK 316 AUDIO
    TITLE "13:cjc171_05658"
    INDEX 01 07:08:53
  TRACK 317 AUDIO
    TITLE "0:"
    INDEX 01 07:09:74
  TRACK 318 AUDIO
    TITLE "14:cjc171_05659"
    INDEX 01 07:10:34
  TRACK 319 AUDIO
    TITLE "0:"
    INDEX 01 07:12:37
  TRACK 320 AUDIO
    TITLE "15:cjc171_05660"
    INDEX 01 07:12:56
  TRACK 321 AUDIO
    TITLE "0:"
    INDEX 01 07:14:59
  TRACK 322 AUDIO
    TITLE "11:cjc171_05661"
    INDEX 01 07:15:55
  TRACK 323 AUDIO
    TITLE "0:"
    INDEX 01 07:16:68
  TRACK 324 AUDIO
    TITLE "12:cjc171_05662"
    INDEX 01 07:17:26
  TRACK 325 AUDIO
    TITLE "0:"
    INDEX 01 07:19:35
  TRACK 326 AUDIO
    TITLE "13:cjc171_05663"
    INDEX 01 07:20:36
  TRACK 327 AUDIO
    TITLE "0:"
    INDEX 01 07:22:53
  TRACK 328 AUDIO
    TITLE "14:cjc171_05664"
    INDEX 01 07:23:11
  TRACK 329 AUDIO
    TITLE "0:"
    INDEX 01 07:25:65
  TRACK 330 AUDIO
    TITLE "15:cjc171_05665"
    INDEX 01 07:26:09
  TRACK 331 AUDIO
    TITLE "0:"
    INDEX 01 07:28:61
  TRACK 332 AUDIO
    TITLE "11:cjc171_05666"
    INDEX 01 07:29:57
  TRACK 333 AUDIO
    TITLE "0:"
    INDEX 01 07:30:62
  TRACK 334 AUDIO
    TITLE "12:cjc171_05667"
    INDEX 01 07:31:22
  TRACK 335 AUDIO
    TITLE "0:"
    INDEX 01 07:33:57
  TRACK 336 AUDIO
    TITLE "13:cjc171_05668"
    INDEX 01 07:34:58
  TRACK 337 AUDIO
    TITLE "0:"
    INDEX 01 07:37:05
  TRACK 338 AUDIO
    TITLE "14:cjc171_05669"
    INDEX 01 07:37:39
  TRACK 339 AUDIO
    TITLE "0:"
    INDEX 01 07:39:49
  TRACK 340 AUDIO
    TITLE "15:cjc171_05670"
    INDEX 01 07:39:69
  TRACK 341 AUDIO
    TITLE "0:"
    INDEX 01 07:42:05
  TRACK 342 AUDIO
    TITLE "11:cjc171_05671"
    INDEX 01 07:42:75
  TRACK 343 AUDIO
    TITLE "0:"
    INDEX 01 07:44:25
  TRACK 344 AUDIO
    TITLE "12:cjc171_05672"
    INDEX 01 07:44:60
  TRACK 345 AUDIO
    TITLE "0:"
    INDEX 01 07:46:63
  TRACK 346 AUDIO
    TITLE "13:cjc171_05673"
    INDEX 01 07:47:63
  TRACK 347 AUDIO
    TITLE "0:"
    INDEX 01 07:50:30
  TRACK 348 AUDIO
    TITLE "14:cjc171_05674"
    INDEX 01 07:50:63
  TRACK 349 AUDIO
    TITLE "0:"
    INDEX 01 07:53:16
  TRACK 350 AUDIO
    TITLE "15:cjc171_05675"
    INDEX 01 07:53:40
  TRACK 351 AUDIO
    TITLE "0:"
    INDEX 01 07:55:66
  TRACK 352 AUDIO
    TITLE "11:cjc171_05676"
    INDEX 01 07:56:61
  TRACK 353 AUDIO
    TITLE "0:"
    INDEX 01 07:57:63
  TRACK 354 AUDIO
    TITLE "12:cjc171_05677"
    INDEX 01 07:58:23
  TRACK 355 AUDIO
    TITLE "0:"
    INDEX 01 08:00:48
  TRACK 356 AUDIO
    TITLE "13:cjc171_05678"
    INDEX 01 08:01:47
  TRACK 357 AUDIO
    TITLE "0:"
    INDEX 01 08:03:73
  TRACK 358 AUDIO
    TITLE "14:cjc171_05679"
    INDEX 01 08:04:34
  TRACK 359 AUDIO
    TITLE "0:"
    INDEX 01 08:06:15
  TRACK 360 AUDIO
    TITLE "15:cjc171_05680"
    INDEX 01 08:06:36
  TRACK 361 AUDIO
    TITLE "0:"
    INDEX 01 08:08:22
  TRACK 362 AUDIO
    TITLE "11:cjc171_05681"
    INDEX 01 08:09:17
  TRACK 363 AUDIO
    TITLE "0:"
    INDEX 01 08:10:24
  TRACK 364 AUDIO
    TITLE "12:cjc171_05682"
    INDEX 01 08:10:58
  TRACK 365 AUDIO
    TITLE "0:"
    INDEX 01 08:13:23
  TRACK 366 AUDIO
    TITLE "13:cjc171_05683"
    INDEX 01 08:14:20
  TRACK 367 AUDIO
    TITLE "0:"
    INDEX 01 08:16:45
  TRACK 368 AUDIO
    TITLE "14:cjc171_05684"
    INDEX 01 08:17:05
  TRACK 369 AUDIO
    TITLE "0:"
    INDEX 01 08:19:51
  TRACK 370 AUDIO
    TITLE "15:cjc171_05685"
    INDEX 01 08:19:72
  TRACK 371 AUDIO
    TITLE "0:"
    INDEX 01 08:22:45
  TRACK 372 AUDIO
    TITLE "11:cjc171_05686"
    INDEX 01 08:23:41
  TRACK 373 AUDIO
    TITLE "0:"
    INDEX 01 08:24:66
  TRACK 374 AUDIO
    TITLE "12:cjc171_05687"
    INDEX 01 08:25:22
  TRACK 375 AUDIO
    TITLE "0:"
    INDEX 01 08:27:35
  TRACK 376 AUDIO
    TITLE "13:cjc171_05688"
    INDEX 01 08:28:34
  TRACK 377 AUDIO
    TITLE "0:"
    INDEX 01 08:30:15
  TRACK 378 AUDIO
    TITLE "14:cjc171_05689"
    INDEX 01 08:30:55
  TRACK 379 AUDIO
    TITLE "0:"
    INDEX 01 08:32:44
  TRACK 380 AUDIO
    TITLE "15:cjc171_05690"
    INDEX 01 08:32:65
  TRACK 381 AUDIO
    TITLE "0:"
    INDEX 01 08:34:54
  TRACK 382 AUDIO
    TITLE "11:cjc171_05691"
    INDEX 01 08:35:50
  TRACK 383 AUDIO
    TITLE "0:"
    INDEX 01 08:36:59
  TRACK 384 AUDIO
    TITLE "12:cjc171_05692"
    INDEX 01 08:37:19
  TRACK 385 AUDIO
    TITLE "0:"
    INDEX 01 08:40:22
  TRACK 386 AUDIO
    TITLE "13:cjc171_05693"
    INDEX 01 08:41:23
  TRACK 387 AUDIO
    TITLE "0:"
    INDEX 01 08:43:36
  TRACK 388 AUDIO
    TITLE "14:cjc171_05694"
    INDEX 01 08:43:69
  TRACK 389 AUDIO
    TITLE "0:"
    INDEX 01 08:45:50
  TRACK 390 AUDIO
    TITLE "15:cjc171_05695"
    INDEX 01 08:45:70
  TRACK 391 AUDIO
    TITLE "0:"
    INDEX 01 08:47:51
  TRACK 392 AUDIO
    TITLE "11:cjc171_05696"
    INDEX 01 08:48:45
  TRACK 393 AUDIO
    TITLE "0:"
    INDEX 01 08:49:73
  TRACK 394 AUDIO
    TITLE "12:cjc171_05697"
    INDEX 01 08:50:36
  TRACK 395 AUDIO
    TITLE "0:"
    INDEX 01 08:52:72
  TRACK 396 AUDIO
    TITLE "13:cjc171_05698"
    INDEX 01 08:53:73
  TRACK 397 AUDIO
    TITLE "0:"
    INDEX 01 08:56:38
  TRACK 398 AUDIO
    TITLE "14:cjc171_05699"
    INDEX 01 08:56:72
  TRACK 399 AUDIO
    TITLE "0:"
    INDEX 01 08:59:37
  TRACK 400 AUDIO
    TITLE "15:cjc171_05700"
    INDEX 01 08:59:56
  TRACK 401 AUDIO
    TITLE "0:"
    INDEX 01 09:02:21
  TRACK 402 AUDIO
    TITLE "11:cjc171_05701"
    INDEX 01 09:03:23
  TRACK 403 AUDIO
    TITLE "0:"
    INDEX 01 09:04:36
  TRACK 404 AUDIO
    TITLE "12:cjc171_05702"
    INDEX 01 09:04:75
  TRACK 405 AUDIO
    TITLE "0:"
    INDEX 01 09:06:58
  TRACK 406 AUDIO
    TITLE "13:cjc171_05703"
    INDEX 01 09:07:58
  TRACK 407 AUDIO
    TITLE "0:"
    INDEX 01 09:11:01
  TRACK 408 AUDIO
    TITLE "14:cjc171_05704"
    INDEX 01 09:11:44
  TRACK 409 AUDIO
    TITLE "0:"
    INDEX 01 09:14:30
  TRACK 410 AUDIO
    TITLE "15:cjc171_05705"
    INDEX 01 09:14:60
  TRACK 411 AUDIO
    TITLE "0:"
    INDEX 01 09:17:44
  TRACK 412 AUDIO
    TITLE "11:cjc171_05706"
    INDEX 01 09:18:50
  TRACK 413 AUDIO
    TITLE "0:"
    INDEX 01 09:19:69
  TRACK 414 AUDIO
    TITLE "12:cjc171_05707"
    INDEX 01 09:20:33
  TRACK 415 AUDIO
    TITLE "0:"
    INDEX 01 09:22:61
  TRACK 416 AUDIO
    TITLE "13:cjc171_05708"
    INDEX 01 09:23:61
  TRACK 417 AUDIO
    TITLE "0:"
    INDEX 01 09:25:34
  TRACK 418 AUDIO
    TITLE "14:cjc171_05709"
    INDEX 01 09:25:73
  TRACK 419 AUDIO
    TITLE "0:"
    INDEX 01 09:28:25
  TRACK 420 AUDIO
    TITLE "15:cjc171_05710"
    INDEX 01 09:28:54
  TRACK 421 AUDIO
    TITLE "0:"
    INDEX 01 09:31:07
  TRACK 422 AUDIO
    TITLE "11:cjc171_05711"
    INDEX 01 09:32:12
  TRACK 423 AUDIO
    TITLE "0:"
    INDEX 01 09:33:49
  TRACK 424 AUDIO
    TITLE "12:cjc171_05712"
    INDEX 01 09:34:11
  TRACK 425 AUDIO
    TITLE "0:"
    INDEX 01 09:35:48
  TRACK 426 AUDIO
    TITLE "13:cjc171_05713"
    INDEX 01 09:36:48
  TRACK 427 AUDIO
    TITLE "0:"
    INDEX 01 09:39:67
  TRACK 428 AUDIO
    TITLE "14:cjc171_05714"
    INDEX 01 09:40:32
  TRACK 429 AUDIO
    TITLE "0:"
    INDEX 01 09:43:36
  TRACK 430 AUDIO
    TITLE "15:cjc171_05715"
    INDEX 01 09:43:63
  TRACK 431 AUDIO
    TITLE "0:"
    INDEX 01 09:46:66
  TRACK 432 AUDIO
    TITLE "11:cjc171_05716"
    INDEX 01 09:47:67
  TRACK 433 AUDIO
    TITLE "0:"
    INDEX 01 09:49:13
  TRACK 434 AUDIO
    TITLE "12:cjc171_05717"
    INDEX 01 09:49:54
  TRACK 435 AUDIO
    TITLE "0:"
    INDEX 01 09:52:15
  TRACK 436 AUDIO
    TITLE "13:cjc171_05718"
    INDEX 01 09:53:15
  TRACK 437 AUDIO
    TITLE "0:"
    INDEX 01 09:55:16
  TRACK 438 AUDIO
    TITLE "14:cjc171_05719"
    INDEX 01 09:55:55
  TRACK 439 AUDIO
    TITLE "0:"
    INDEX 01 09:57:50
  TRACK 440 AUDIO
    TITLE "15:cjc171_05720"
    INDEX 01 09:58:04
  TRACK 441 AUDIO
    TITLE "0:"
    INDEX 01 10:00:01
  TRACK 442 AUDIO
    TITLE "11:cjc171_05721"
    INDEX 01 10:01:04
  TRACK 443 AUDIO
    TITLE "0:"
    INDEX 01 10:02:18
  TRACK 444 AUDIO
    TITLE "12:cjc171_05722"
    INDEX 01 10:02:57
  TRACK 445 AUDIO
    TITLE "0:"
    INDEX 01 10:04:54
  TRACK 446 AUDIO
    TITLE "13:cjc171_05723"
    INDEX 01 10:05:53
  TRACK 447 AUDIO
    TITLE "0:"
    INDEX 01 10:08:02
  TRACK 448 AUDIO
    TITLE "14:cjc171_05724"
    INDEX 01 10:08:42
  TRACK 449 AUDIO
    TITLE "0:"
    INDEX 01 10:10:56
  TRACK 450 AUDIO
    TITLE "15:cjc171_05725"
    INDEX 01 10:11:15
  TRACK 451 AUDIO
    TITLE "0:"
    INDEX 01 10:13:27
  TRACK 452 AUDIO
    TITLE "11:cjc171_05726"
    INDEX 01 10:14:32
  TRACK 453 AUDIO
    TITLE "0:"
    INDEX 01 10:15:50
  TRACK 454 AUDIO
    TITLE "12:cjc171_05727"
    INDEX 01 10:16:14
  TRACK 455 AUDIO
    TITLE "0:"
    INDEX 01 10:18:66
  TRACK 456 AUDIO
    TITLE "13:cjc171_05728"
    INDEX 01 10:19:65
  TRACK 457 AUDIO
    TITLE "0:"
    INDEX 01 10:21:17
  TRACK 458 AUDIO
    TITLE "14:cjc171_05729"
    INDEX 01 10:21:58
  TRACK 459 AUDIO
    TITLE "0:"
    INDEX 01 10:23:47
  TRACK 460 AUDIO
    TITLE "15:cjc171_05730"
    INDEX 01 10:23:75
  TRACK 461 AUDIO
    TITLE "0:"
    INDEX 01 10:25:66
  TRACK 462 AUDIO
    TITLE "11:cjc171_05731"
    INDEX 01 10:26:67
  TRACK 463 AUDIO
    TITLE "0:"
    INDEX 01 10:27:72
  TRACK 464 AUDIO
    TITLE "12:cjc171_05732"
    INDEX 01 10:28:35
  TRACK 465 AUDIO
    TITLE "0:"
    INDEX 01 10:29:57
  TRACK 466 AUDIO
    TITLE "13:cjc171_05733"
    INDEX 01 10:30:57
  TRACK 467 AUDIO
    TITLE "0:"
    INDEX 01 10:33:14
  TRACK 468 AUDIO
    TITLE "14:cjc171_05734"
    INDEX 01 10:33:55
  TRACK 469 AUDIO
    TITLE "0:"
    INDEX 01 10:36:30
  TRACK 470 AUDIO
    TITLE "15:cjc171_05735"
    INDEX 01 10:36:60
  TRACK 471 AUDIO
    TITLE "0:"
    INDEX 01 10:39:34
  TRACK 472 AUDIO
    TITLE "11:cjc171_05736"
    INDEX 01 10:40:40
  TRACK 473 AUDIO
    TITLE "0:"
    INDEX 01 10:41:39
  TRACK 474 AUDIO
    TITLE "12:cjc171_05737"
    INDEX 01 10:42:05
  TRACK 475 AUDIO
    TITLE "0:"
    INDEX 01 10:44:20
  TRACK 476 AUDIO
    TITLE "13:cjc171_05738"
    INDEX 01 10:45:17
  TRACK 477 AUDIO
    TITLE "0:"
    INDEX 01 10:46:74
  TRACK 478 AUDIO
    TITLE "14:cjc171_05739"
    INDEX 01 10:47:38
  TRACK 479 AUDIO
    TITLE "0:"
    INDEX 01 10:49:29
  TRACK 480 AUDIO
    TITLE "15:cjc171_05740"
    INDEX 01 10:49:60
  TRACK 481 AUDIO
    TITLE "0:"
    INDEX 01 10:51:51
  TRACK 482 AUDIO
    TITLE "11:cjc171_05741"
    INDEX 01 10:52:57
  TRACK 483 AUDIO
    TITLE "0:"
    INDEX 01 10:53:70
  TRACK 484 AUDIO
    TITLE "12:cjc171_05742"
    INDEX 01 10:54:34
  TRACK 485 AUDIO
    TITLE "0:"
    INDEX 01 10:56:62
  TRACK 486 AUDIO
    TITLE "13:cjc171_05743"
    INDEX 01 10:57:62
  TRACK 487 AUDIO
    TITLE "0:"
    INDEX 01 11:00:29
  TRACK 488 AUDIO
    TITLE "14:cjc171_05744"
    INDEX 01 11:00:70
  TRACK 489 AUDIO
    TITLE "0:"
    INDEX 01 11:03:41
  TRACK 490 AUDIO
    TITLE "15:cjc171_05745"
    INDEX 01 11:03:72
  TRACK 491 AUDIO
    TITLE "0:"
    INDEX 01 11:06:41
  TRACK 492 AUDIO
    TITLE "11:cjc171_05746"
    INDEX 01 11:07:44
  TRACK 493 AUDIO
    TITLE "0:"
    INDEX 01 11:08:61
  TRACK 494 AUDIO
    TITLE "12:cjc171_05747"
    INDEX 01 11:09:28
  TRACK 495 AUDIO
    TITLE "0:"
    INDEX 01 11:11:70
  TRACK 496 AUDIO
    TITLE "13:cjc171_05748"
    INDEX 01 11:12:71
  TRACK 497 AUDIO
    TITLE "0:"
    INDEX 01 11:15:13
  TRACK 498 AUDIO
    TITLE "14:cjc171_05749"
    INDEX 01 11:15:52
  TRACK 499 AUDIO
    TITLE "0:"
    INDEX 01 11:17:37
  TRACK 500 AUDIO
    TITLE "15:cjc171_05750"
    INDEX 01 11:17:64
  TRACK 501 AUDIO
    TITLE "0:"
    INDEX 01 11:19:48
  TRACK 502 AUDIO
    TITLE "11:cjc171_05751"
    INDEX 01 11:20:47
  TRACK 503 AUDIO
    TITLE "0:"
    INDEX 01 11:21:58
  TRACK 504 AUDIO
    TITLE "12:cjc171_05752"
    INDEX 01 11:22:17
  TRACK 505 AUDIO
    TITLE "0:"
    INDEX 01 11:24:60
  TRACK 506 AUDIO
    TITLE "13:cjc171_05753"
    INDEX 01 11:25:60
  TRACK 507 AUDIO
    TITLE "0:"
    INDEX 01 11:27:49
  TRACK 508 AUDIO
    TITLE "14:cjc171_05754"
    INDEX 01 11:28:09
  TRACK 509 AUDIO
    TITLE "0:"
    INDEX 01 11:29:75
  TRACK 510 AUDIO
    TITLE "15:cjc171_05755"
    INDEX 01 11:30:22
  TRACK 511 AUDIO
    TITLE "0:"
    INDEX 01 11:32:13
  TRACK 512 AUDIO
    TITLE "11:cjc171_05756"
    INDEX 01 11:33:07
  TRACK 513 AUDIO
    TITLE "0:"
    INDEX 01 11:34:08
  TRACK 514 AUDIO
    TITLE "12:cjc171_05757"
    INDEX 01 11:34:41
  TRACK 515 AUDIO
    TITLE "0:"
    INDEX 01 11:36:66
  TRACK 516 AUDIO
    TITLE "13:cjc171_05758"
    INDEX 01 11:37:65
  TRACK 517 AUDIO
    TITLE "0:"
    INDEX 01 11:40:07
  TRACK 518 AUDIO
    TITLE "14:cjc171_05759"
    INDEX 01 11:40:40
  TRACK 519 AUDIO
    TITLE "0:"
    INDEX 01 11:42:33
  TRACK 520 AUDIO
    TITLE "15:cjc171_05760"
    INDEX 01 11:42:55
  TRACK 521 AUDIO
    TITLE "0:"
    INDEX 01 11:44:48
  TRACK 522 AUDIO
    TITLE "11:cjc171_05761"
    INDEX 01 11:45:47
  TRACK 523 AUDIO
    TITLE "0:"
    INDEX 01 11:46:54
  TRACK 524 AUDIO
    TITLE "12:cjc171_05762"
    INDEX 01 11:47:07
  TRACK 525 AUDIO
    TITLE "0:"
    INDEX 01 11:49:51
  TRACK 526 AUDIO
    TITLE "13:cjc171_05763"
    INDEX 01 11:50:50
  TRACK 527 AUDIO
    TITLE "0:"
    INDEX 01 11:53:74
  TRACK 528 AUDIO
    TITLE "14:cjc171_05764"
    INDEX 01 11:54:32
  TRACK 529 AUDIO
    TITLE "0:"
    INDEX 01 11:57:07
  TRACK 530 AUDIO
    TITLE "15:cjc171_05765"
    INDEX 01 11:57:31
  TRACK 531 AUDIO
    TITLE "0:"
    INDEX 01 12:00:05
  TRACK 532 AUDIO
    TITLE "11:cjc171_05766"
    INDEX 01 12:01:03
  TRACK 533 AUDIO
    TITLE "0:"
    INDEX 01 12:02:28
  TRACK 534 AUDIO
    TITLE "12:cjc171_05767"
    INDEX 01 12:02:67
  TRACK 535 AUDIO
    TITLE "0:"
    INDEX 01 12:05:52
  TRACK 536 AUDIO
    TITLE "13:cjc171_05768"
    INDEX 01 12:06:53
  TRACK 537 AUDIO
    TITLE "0:"
    INDEX 01 12:09:14
  TRACK 538 AUDIO
    TITLE "14:cjc171_05769"
    INDEX 01 12:09:47
  TRACK 539 AUDIO
    TITLE "0:"
    INDEX 01 12:11:66
  TRACK 540 AUDIO
    TITLE "15:cjc171_05770"
    INDEX 01 12:12:16
  TRACK 541 AUDIO
    TITLE "0:"
    INDEX 01 12:14:35
  TRACK 542 AUDIO
    TITLE "11:cjc171_05771"
    INDEX 01 12:15:38
  TRACK 543 AUDIO
    TITLE "0:"
    INDEX 01 12:16:36
  TRACK 544 AUDIO
    TITLE "12:cjc171_05772"
    INDEX 01 12:16:73
  TRACK 545 AUDIO
    TITLE "0:"
    INDEX 01 12:18:13
  TRACK 546 AUDIO
    TITLE "13:cjc171_05773"
    INDEX 01 12:19:07
  TRACK 547 AUDIO
    TITLE "0:"
    INDEX 01 12:21:21
  TRACK 548 AUDIO
    TITLE "14:cjc171_05774"
    INDEX 01 12:21:62
  TRACK 549 AUDIO
    TITLE "0:"
    INDEX 01 12:23:51
  TRACK 550 AUDIO
    TITLE "15:cjc171_05775"
    INDEX 01 12:24:02
  TRACK 551 AUDIO
    TITLE "0:"
    INDEX 01 12:25:68
  TRACK 552 AUDIO
    TITLE "11:cjc171_05776"
    INDEX 01 12:26:64
  TRACK 553 AUDIO
    TITLE "0:"
    INDEX 01 12:28:04
  TRACK 554 AUDIO
    TITLE "12:cjc171_05777"
    INDEX 01 12:28:37
  TRACK 555 AUDIO
    TITLE "0:"
    INDEX 01 12:30:42
  TRACK 556 AUDIO
    TITLE "13:cjc171_05778"
    INDEX 01 12:31:43
  TRACK 557 AUDIO
    TITLE "0:"
    INDEX 01 12:34:08
  TRACK 558 AUDIO
    TITLE "14:cjc171_05779"
    INDEX 01 12:34:42
  TRACK 559 AUDIO
    TITLE "0:"
    INDEX 01 12:37:07
  TRACK 560 AUDIO
    TITLE "15:cjc171_05780"
    INDEX 01 12:37:28
  TRACK 561 AUDIO
    TITLE "0:"
    INDEX 01 12:39:66
  TRACK 562 AUDIO
    TITLE "11:cjc171_05781"
    INDEX 01 12:40:66
  TRACK 563 AUDIO
    TITLE "0:"
    INDEX 01 12:41:59
  TRACK 564 AUDIO
    TITLE "12:cjc171_05782"
    INDEX 01 12:42:21
  TRACK 565 AUDIO
    TITLE "0:"
    INDEX 01 12:43:33
  TRACK 566 AUDIO
    TITLE "13:cjc171_05783"
    INDEX 01 12:44:32
  TRACK 567 AUDIO
    TITLE "0:"
    INDEX 01 12:45:73
  TRACK 568 AUDIO
    TITLE "14:cjc171_05784"
    INDEX 01 12:46:35
  TRACK 569 AUDIO
    TITLE "0:"
    INDEX 01 12:48:14
  TRACK 570 AUDIO
    TITLE "15:cjc171_05785"
    INDEX 01 12:48:38
  TRACK 571 AUDIO
    TITLE "0:"
    INDEX 01 12:50:15
  TRACK 572 AUDIO
    TITLE "11:cjc171_05786"
    INDEX 01 12:51:07
  TRACK 573 AUDIO
    TITLE "0:"
    INDEX 01 12:52:14
  TRACK 574 AUDIO
    TITLE "12:cjc171_05787"
    INDEX 01 12:52:51
  TRACK 575 AUDIO
    TITLE "0:"
    INDEX 01 12:55:50
  TRACK 576 AUDIO
    TITLE "13:cjc171_05788"
    INDEX 01 12:56:47
  TRACK 577 AUDIO
    TITLE "0:"
    INDEX 01 12:58:22
  TRACK 578 AUDIO
    TITLE "14:cjc171_05789"
    INDEX 01 12:58:62
  TRACK 579 AUDIO
    TITLE "0:"
    INDEX 01 13:00:31
  TRACK 580 AUDIO
    TITLE "15:cjc171_05790"
    INDEX 01 13:00:57
  TRACK 581 AUDIO
    TITLE "0:"
    INDEX 01 13:02:26
  TRACK 582 AUDIO
    TITLE "11:cjc171_05791"
    INDEX 01 13:03:22
  TRACK 583 AUDIO
    TITLE "0:"
    INDEX 01 13:04:39
  TRACK 584 AUDIO
    TITLE "12:cjc171_05792"
    INDEX 01 13:05:01
  TRACK 585 AUDIO
    TITLE "0:"
    INDEX 01 13:07:25
  TRACK 586 AUDIO
    TITLE "13:cjc171_05793"
    INDEX 01 13:08:25
  TRACK 587 AUDIO
    TITLE "0:"
    INDEX 01 13:10:33
  TRACK 588 AUDIO
    TITLE "14:cjc171_05794"
    INDEX 01 13:10:67
  TRACK 589 AUDIO
    TITLE "0:"
    INDEX 01 13:13:36
  TRACK 590 AUDIO
    TITLE "15:cjc171_05795"
    INDEX 01 13:13:59
  TRACK 591 AUDIO
    TITLE "0:"
    INDEX 01 13:16:28
  TRACK 592 AUDIO
    TITLE "11:cjc171_05796"
    INDEX 01 13:17:28
  TRACK 593 AUDIO
    TITLE "0:"
    INDEX 01 13:18:37
  TRACK 594 AUDIO
    TITLE "12:cjc171_05797"
    INDEX 01 13:18:72
  TRACK 595 AUDIO
    TITLE "0:"
    INDEX 01 13:21:29
  TRACK 596 AUDIO
    TITLE "13:cjc171_05798"
    INDEX 01 13:22:25
  TRACK 597 AUDIO
    TITLE "0:"
    INDEX 01 13:24:53
  TRACK 598 AUDIO
    TITLE "14:cjc171_05799"
    INDEX 01 13:25:11
  TRACK 599 AUDIO
    TITLE "0:"
    INDEX 01 13:27:50
  TRACK 600 AUDIO
    TITLE "15:cjc171_05800"
    INDEX 01 13:27:67
  TRACK 601 AUDIO
    TITLE "0:"
    INDEX 01 13:30:28
  TRACK 602 AUDIO
    TITLE "11:cjc171_05801"
    INDEX 01 13:31:28
  TRACK 603 AUDIO
    TITLE "0:"
    INDEX 01 13:32:33
  TRACK 604 AUDIO
    TITLE "12:cjc171_05802"
    INDEX 01 13:32:72
  TRACK 605 AUDIO
    TITLE "0:"
    INDEX 01 13:37:05
  TRACK 606 AUDIO
    TITLE "13:cjc171_05803"
    INDEX 01 13:37:73
  TRACK 607 AUDIO
    TITLE "0:"
    INDEX 01 13:39:57
  TRACK 608 AUDIO
    TITLE "14:cjc171_05804"
    INDEX 01 13:40:19
  TRACK 609 AUDIO
    TITLE "0:"
    INDEX 01 13:42:16
  TRACK 610 AUDIO
    TITLE "15:cjc171_05805"
    INDEX 01 13:42:45
  TRACK 611 AUDIO
    TITLE "0:"
    INDEX 01 13:44:42
  TRACK 612 AUDIO
    TITLE "11:cjc171_05806"
    INDEX 01 13:45:46
  TRACK 613 AUDIO
    TITLE "0:"
    INDEX 01 13:46:68
  TRACK 614 AUDIO
    TITLE "12:cjc171_05807"
    INDEX 01 13:47:35
  TRACK 615 AUDIO
    TITLE "0:"
    INDEX 01 13:48:69
  TRACK 616 AUDIO
    TITLE "13:cjc171_05808"
    INDEX 01 13:49:69
  TRACK 617 AUDIO
    TITLE "0:"
    INDEX 01 13:52:22
  TRACK 618 AUDIO
    TITLE "14:cjc171_05809"
    INDEX 01 13:52:59
  TRACK 619 AUDIO
    TITLE "0:"
    INDEX 01 13:55:18
  TRACK 620 AUDIO
    TITLE "15:cjc171_05810"
    INDEX 01 13:55:48
  TRACK 621 AUDIO
    TITLE "0:"
    INDEX 01 13:58:05
  TRACK 622 AUDIO
    TITLE "11:cjc171_05811"
    INDEX 01 13:59:10
  TRACK 623 AUDIO
    TITLE "0:"
    INDEX 01 14:00:16
  TRACK 624 AUDIO
    TITLE "12:cjc171_05812"
    INDEX 01 14:00:55
  TRACK 625 AUDIO
    TITLE "0:"
    INDEX 01 14:03:43
  TRACK 626 AUDIO
    TITLE "13:cjc171_05813"
    INDEX 01 14:04:43
  TRACK 627 AUDIO
    TITLE "0:"
    INDEX 01 14:07:28
  TRACK 628 AUDIO
    TITLE "14:cjc171_05814"
    INDEX 01 14:07:69
  TRACK 629 AUDIO
    TITLE "0:"
    INDEX 01 14:09:54
  TRACK 630 AUDIO
    TITLE "15:cjc171_05815"
    INDEX 01 14:10:08
  TRACK 631 AUDIO
    TITLE "0:"
    INDEX 01 14:11:68
  TRACK 632 AUDIO
    TITLE "11:cjc171_05816"
    INDEX 01 14:12:72
  TRACK 633 AUDIO
    TITLE "0:"
    INDEX 01 14:14:12
  TRACK 634 AUDIO
    TITLE "12:cjc171_05817"
    INDEX 01 14:14:49
  TRACK 635 AUDIO
    TITLE "0:"
    INDEX 01 14:16:52
  TRACK 636 AUDIO
    TITLE "13:cjc171_05818"
    INDEX 01 14:17:53
  TRACK 637 AUDIO
    TITLE "0:"
    INDEX 01 14:19:17
  TRACK 638 AUDIO
    TITLE "14:cjc171_05819"
    INDEX 01 14:19:54
  TRACK 639 AUDIO
    TITLE "0:"
    INDEX 01 14:21:67
  TRACK 640 AUDIO
    TITLE "15:cjc171_05820"
    INDEX 01 14:22:19
  TRACK 641 AUDIO
    TITLE "0:"
    INDEX 01 14:24:32
  TRACK 642 AUDIO
    TITLE "11:cjc171_05821"
    INDEX 01 14:25:35
  TRACK 643 AUDIO
    TITLE "0:"
    INDEX 01 14:26:56
  TRACK 644 AUDIO
    TITLE "12:cjc171_05822"
    INDEX 01 14:27:20
  TRACK 645 AUDIO
    TITLE "0:"
    INDEX 01 14:28:24
  TRACK 646 AUDIO
    TITLE "13:cjc171_05823"
    INDEX 01 14:29:23
  TRACK 647 AUDIO
    TITLE "0:"
    INDEX 01 14:30:52
  TRACK 648 AUDIO
    TITLE "14:cjc171_05824"
    INDEX 01 14:31:14
  TRACK 649 AUDIO
    TITLE "0:"
    INDEX 01 14:33:15
  TRACK 650 AUDIO
    TITLE "15:cjc171_05825"
    INDEX 01 14:33:45
  TRACK 651 AUDIO
    TITLE "0:"
    INDEX 01 14:35:45
  TRACK 652 AUDIO
    TITLE "11:cjc171_05826"
    INDEX 01 14:36:49
  TRACK 653 AUDIO
    TITLE "0:"
    INDEX 01 14:37:62
  TRACK 654 AUDIO
    TITLE "12:cjc171_05827"
    INDEX 01 14:38:26
  TRACK 655 AUDIO
    TITLE "0:"
    INDEX 01 14:40:74
  TRACK 656 AUDIO
    TITLE "13:cjc171_05828"
    INDEX 01 14:41:73
  TRACK 657 AUDIO
    TITLE "0:"
    INDEX 01 14:44:25
  TRACK 658 AUDIO
    TITLE "14:cjc171_05829"
    INDEX 01 14:44:64
  TRACK 659 AUDIO
    TITLE "0:"
    INDEX 01 14:46:57
  TRACK 660 AUDIO
    TITLE "15:cjc171_05830"
    INDEX 01 14:47:09
  TRACK 661 AUDIO
    TITLE "0:"
    INDEX 01 14:48:75
  TRACK 662 AUDIO
    TITLE "11:cjc171_05831"
    INDEX 01 14:50:04
  TRACK 663 AUDIO
    TITLE "0:"
    INDEX 01 14:51:23
  TRACK 664 AUDIO
    TITLE "12:cjc171_05832"
    INDEX 01 14:51:60
  TRACK 665 AUDIO
    TITLE "0:"
    INDEX 01 14:53:18
  TRACK 666 AUDIO
    TITLE "13:cjc171_05833"
    INDEX 01 14:54:13
  TRACK 667 AUDIO
    TITLE "0:"
    INDEX 01 14:56:12
  TRACK 668 AUDIO
    TITLE "14:cjc171_05834"
    INDEX 01 14:56:59
  TRACK 669 AUDIO
    TITLE "0:"
    INDEX 01 14:59:13
  TRACK 670 AUDIO
    TITLE "15:cjc171_05835"
    INDEX 01 14:59:40
  TRACK 671 AUDIO
    TITLE "0:"
    INDEX 01 15:01:70
  TRACK 672 AUDIO
    TITLE "11:cjc171_05836"
    INDEX 01 15:02:74
  TRACK 673 AUDIO
    TITLE "0:"
    INDEX 01 15:04:16
  TRACK 674 AUDIO
    TITLE "12:cjc171_05837"
    INDEX 01 15:04:53
  TRACK 675 AUDIO
    TITLE "0:"
    INDEX 01 15:06:71
  TRACK 676 AUDIO
    TITLE "13:cjc171_05838"
    INDEX 01 15:07:69
  TRACK 677 AUDIO
    TITLE "0:"
    INDEX 01 15:09:46
  TRACK 678 AUDIO
    TITLE "14:cjc171_05839"
    INDEX 01 15:10:07
  TRACK 679 AUDIO
    TITLE "0:"
    INDEX 01 15:12:17
  TRACK 680 AUDIO
    TITLE "15:cjc171_05840"
    INDEX 01 15:12:48
  TRACK 681 AUDIO
    TITLE "0:"
    INDEX 01 15:14:57
  TRACK 682 AUDIO
    TITLE "11:cjc171_05841"
    INDEX 01 15:15:63
  TRACK 683 AUDIO
    TITLE "0:"
    INDEX 01 15:17:12
  TRACK 684 AUDIO
    TITLE "12:cjc171_05842"
    INDEX 01 15:17:46
  TRACK 685 AUDIO
    TITLE "0:"
    INDEX 01 15:20:56
  TRACK 686 AUDIO
    TITLE "13:cjc171_05843"
    INDEX 01 15:21:55
  TRACK 687 AUDIO
    TITLE "0:"
    INDEX 01 15:23:31
  TRACK 688 AUDIO
    TITLE "14:cjc171_05844"
    INDEX 01 15:23:68
  TRACK 689 AUDIO
    TITLE "0:"
    INDEX 01 15:26:17
  TRACK 690 AUDIO
    TITLE "15:cjc171_05845"
    INDEX 01 15:26:47
  TRACK 691 AUDIO
    TITLE "0:"
    INDEX 01 15:28:69
  TRACK 692 AUDIO
    TITLE "11:cjc171_05846"
    INDEX 01 15:29:74
  TRACK 693 AUDIO
    TITLE "0:"
    INDEX 01 15:31:07
  TRACK 694 AUDIO
    TITLE "12:cjc171_05847"
    INDEX 01 15:31:46
  TRACK 695 AUDIO
    TITLE "0:"
    INDEX 01 15:34:09
  TRACK 696 AUDIO
    TITLE "13:cjc171_05848"
    INDEX 01 15:35:08
  TRACK 697 AUDIO
    TITLE "0:"
    INDEX 01 15:37:01
  TRACK 698 AUDIO
    TITLE "14:cjc171_05849"
    INDEX 01 15:37:41
  TRACK 699 AUDIO
    TITLE "0:"
    INDEX 01 15:39:43
  TRACK 700 AUDIO
    TITLE "15:cjc171_05850"
    INDEX 01 15:39:73
  TRACK 701 AUDIO
    TITLE "0:"
    INDEX 01 15:42:01
  TRACK 702 AUDIO
    TITLE "11:cjc171_05851"
    INDEX 01 15:43:02
  TRACK 703 AUDIO
    TITLE "0:"
    INDEX 01 15:44:25
  TRACK 704 AUDIO
    TITLE "12:cjc171_05852"
    INDEX 01 15:44:62
  TRACK 705 AUDIO
    TITLE "0:"
    INDEX 01 15:47:33
  TRACK 706 AUDIO
    TITLE "13:cjc171_05853"
    INDEX 01 15:48:31
  TRACK 707 AUDIO
    TITLE "0:"
    INDEX 01 15:50:65
  TRACK 708 AUDIO
    TITLE "14:cjc171_05854"
    INDEX 01 15:51:25
  TRACK 709 AUDIO
    TITLE "0:"
    INDEX 01 15:53:36
  TRACK 710 AUDIO
    TITLE "15:cjc171_05855"
    INDEX 01 15:53:57
  TRACK 711 AUDIO
    TITLE "0:"
    INDEX 01 15:55:70
  TRACK 712 AUDIO
    TITLE "11:cjc171_05856"
    INDEX 01 15:56:63
  TRACK 713 AUDIO
    TITLE "0:"
    INDEX 01 15:57:75
  TRACK 714 AUDIO
    TITLE "12:cjc171_05857"
    INDEX 01 15:58:37
  TRACK 715 AUDIO
    TITLE "0:"
    INDEX 01 16:00:06
  TRACK 716 AUDIO
    TITLE "13:cjc171_05858"
    INDEX 01 16:01:10
  TRACK 717 AUDIO
    TITLE "0:"
    INDEX 01 16:03:40
  TRACK 718 AUDIO
    TITLE "14:cjc171_05859"
    INDEX 01 16:03:75
  TRACK 719 AUDIO
    TITLE "0:"
    INDEX 01 16:06:21
  TRACK 720 AUDIO
    TITLE "15:cjc171_05860"
    INDEX 01 16:06:38
  TRACK 721 AUDIO
    TITLE "0:"
    INDEX 01 16:08:57
  TRACK 722 AUDIO
    TITLE "11:cjc171_05861"
    INDEX 01 16:09:50
  TRACK 723 AUDIO
    TITLE "0:"
    INDEX 01 16:10:71
  TRACK 724 AUDIO
    TITLE "12:cjc171_05862"
    INDEX 01 16:11:32
  TRACK 725 AUDIO
    TITLE "0:"
    INDEX 01 16:12:41
  TRACK 726 AUDIO
    TITLE "13:cjc171_05863"
    INDEX 01 16:13:40
  TRACK 727 AUDIO
    TITLE "0:"
    INDEX 01 16:15:08
  TRACK 728 AUDIO
    TITLE "14:cjc171_05864"
    INDEX 01 16:15:45
  TRACK 729 AUDIO
    TITLE "0:"
    INDEX 01 16:17:26
  TRACK 730 AUDIO
    TITLE "15:cjc171_05865"
    INDEX 01 16:17:50
  TRACK 731 AUDIO
    TITLE "0:"
    INDEX 01 16:19:33
  TRACK 732 AUDIO
    TITLE "11:cjc171_05866"
    INDEX 01 16:20:29
  TRACK 733 AUDIO
    TITLE "0:"
    INDEX 01 16:21:59
  TRACK 734 AUDIO
    TITLE "12:cjc171_05867"
    INDEX 01 16:22:22
  TRACK 735 AUDIO
    TITLE "0:"
    INDEX 01 16:23:70
  TRACK 736 AUDIO
    TITLE "13:cjc171_05868"
    INDEX 01 16:24:72
  TRACK 737 AUDIO
    TITLE "0:"
    INDEX 01 16:27:29
  TRACK 738 AUDIO
    TITLE "14:cjc171_05869"
    INDEX 01 16:27:62
  TRACK 739 AUDIO
    TITLE "0:"
    INDEX 01 16:30:45
  TRACK 740 AUDIO
    TITLE "15:cjc171_05870"
    INDEX 01 16:30:72
  TRACK 741 AUDIO
    TITLE "0:"
    INDEX 01 16:33:53
  TRACK 742 AUDIO
    TITLE "11:cjc171_05871"
    INDEX 01 16:34:56
  TRACK 743 AUDIO
    TITLE "0:"
    INDEX 01 16:36:06
  TRACK 744 AUDIO
    TITLE "12:cjc171_05872"
    INDEX 01 16:36:47
  TRACK 745 AUDIO
    TITLE "0:"
    INDEX 01 16:39:28
  TRACK 746 AUDIO
    TITLE "13:cjc171_05873"
    INDEX 01 16:40:24
  TRACK 747 AUDIO
    TITLE "0:"
    INDEX 01 16:42:34
  TRACK 748 AUDIO
    TITLE "14:cjc171_05874"
    INDEX 01 16:42:69
  TRACK 749 AUDIO
    TITLE "0:"
    INDEX 01 16:45:44
  TRACK 750 AUDIO
    TITLE "15:cjc171_05875"
    INDEX 01 16:45:66
  TRACK 751 AUDIO
    TITLE "0:"
    INDEX 01 16:48:43
  TRACK 752 AUDIO
    TITLE "11:cjc171_05876"
    INDEX 01 16:49:38
  TRACK 753 AUDIO
    TITLE "0:"
    INDEX 01 16:50:53
  TRACK 754 AUDIO
    TITLE "12:cjc171_05877"
    INDEX 01 16:51:19
  TRACK 755 AUDIO
    TITLE "0:"
    INDEX 01 16:53:48
  TRACK 756 AUDIO
    TITLE "13:cjc171_05878"
    INDEX 01 16:54:47
  TRACK 757 AUDIO
    TITLE "0:"
    INDEX 01 16:56:70
  TRACK 758 AUDIO
    TITLE "14:cjc171_05879"
    INDEX 01 16:57:34
  TRACK 759 AUDIO
    TITLE "0:"
    INDEX 01 16:59:50
  TRACK 760 AUDIO
    TITLE "15:cjc171_05880"
    INDEX 01 17:00:03
  TRACK 761 AUDIO
    TITLE "0:"
    INDEX 01 17:02:21
  TRACK 762 AUDIO
    TITLE "11:cjc171_05881"
    INDEX 01 17:03:19
  TRACK 763 AUDIO
    TITLE "0:"
    INDEX 01 17:04:22
  TRACK 764 AUDIO
    TITLE "12:cjc171_05882"
    INDEX 01 17:04:55
  TRACK 765 AUDIO
    TITLE "0:"
    INDEX 01 17:08:06
  TRACK 766 AUDIO
    TITLE "13:cjc171_05883"
    INDEX 01 17:09:04
  TRACK 767 AUDIO
    TITLE "0:"
    INDEX 01 17:11:10
  TRACK 768 AUDIO
    TITLE "14:cjc171_05884"
    INDEX 01 17:11:42
  TRACK 769 AUDIO
    TITLE "0:"
    INDEX 01 17:13:46
  TRACK 770 AUDIO
    TITLE "15:cjc171_05885"
    INDEX 01 17:13:64
  TRACK 771 AUDIO
    TITLE "0:"
    INDEX 01 17:15:69
  TRACK 772 AUDIO
    TITLE "11:cjc171_05886"
    INDEX 01 17:16:64
  TRACK 773 AUDIO
    TITLE "0:"
    INDEX 01 17:17:72
  TRACK 774 AUDIO
    TITLE "12:cjc171_05887"
    INDEX 01 17:18:34
  TRACK 775 AUDIO
    TITLE "0:"
    INDEX 01 17:21:28
  TRACK 776 AUDIO
    TITLE "13:cjc171_05888"
    INDEX 01 17:22:28
  TRACK 777 AUDIO
    TITLE "0:"
    INDEX 01 17:24:46
  TRACK 778 AUDIO
    TITLE "14:cjc171_05889"
    INDEX 01 17:25:09
  TRACK 779 AUDIO
    TITLE "0:"
    INDEX 01 17:26:57
  TRACK 780 AUDIO
    TITLE "15:cjc171_05890"
    INDEX 01 17:27:03
  TRACK 781 AUDIO
    TITLE "0:"
    INDEX 01 17:28:52
  TRACK 782 AUDIO
    TITLE "11:cjc171_05891"
    INDEX 01 17:29:47
  TRACK 783 AUDIO
    TITLE "0:"
    INDEX 01 17:30:70
  TRACK 784 AUDIO
    TITLE "12:cjc171_05892"
    INDEX 01 17:31:29
  TRACK 785 AUDIO
    TITLE "0:"
    INDEX 01 17:34:11
  TRACK 786 AUDIO
    TITLE "13:cjc171_05893"
    INDEX 01 17:35:09
  TRACK 787 AUDIO
    TITLE "0:"
    INDEX 01 17:37:43
  TRACK 788 AUDIO
    TITLE "14:cjc171_05894"
    INDEX 01 17:38:09
  TRACK 789 AUDIO
    TITLE "0:"
    INDEX 01 17:40:26
  TRACK 790 AUDIO
    TITLE "15:cjc171_05895"
    INDEX 01 17:40:51
  TRACK 791 AUDIO
    TITLE "0:"
    INDEX 01 17:42:70
  TRACK 792 AUDIO
    TITLE "11:cjc171_05896"
    INDEX 01 17:43:63
  TRACK 793 AUDIO
    TITLE "0:"
    INDEX 01 17:45:13
  TRACK 794 AUDIO
    TITLE "12:cjc171_05897"
    INDEX 01 17:45:46
  TRACK 795 AUDIO
    TITLE "0:"
    INDEX 01 17:47:69
  TRACK 796 AUDIO
    TITLE "13:cjc171_05898"
    INDEX 01 17:48:66
  TRACK 797 AUDIO
    TITLE "0:"
    INDEX 01 17:50:44
  TRACK 798 AUDIO
    TITLE "14:cjc171_05899"
    INDEX 01 17:51:04
  TRACK 799 AUDIO
    TITLE "0:"
    INDEX 01 17:53:21
  TRACK 800 AUDIO
    TITLE "15:cjc171_05900"
    INDEX 01 17:53:42
  TRACK 801 AUDIO
    TITLE "0:"
    INDEX 01 17:55:59
  TRACK 802 AUDIO
    TITLE "11:cjc171_05901"
    INDEX 01 17:56:58
  TRACK 803 AUDIO
    TITLE "0:"
    INDEX 01 17:57:67
  TRACK 804 AUDIO
    TITLE "12:cjc171_05902"
    INDEX 01 17:58:31
  TRACK 805 AUDIO
    TITLE "0:"
    INDEX 01 18:01:26
  TRACK 806 AUDIO
    TITLE "13:cjc171_05903"
    INDEX 01 18:02:27
  TRACK 807 AUDIO
    TITLE "0:"
    INDEX 01 18:04:40
  TRACK 808 AUDIO
    TITLE "14:cjc171_05904"
    INDEX 01 18:05:06
  TRACK 809 AUDIO
    TITLE "0:"
    INDEX 01 18:07:03
  TRACK 810 AUDIO
    TITLE "15:cjc171_05905"
    INDEX 01 18:07:34
  TRACK 811 AUDIO
    TITLE "0:"
    INDEX 01 18:09:31
  TRACK 812 AUDIO
    TITLE "11:cjc171_05906"
    INDEX 01 18:10:37
  TRACK 813 AUDIO
    TITLE "0:"
    INDEX 01 18:11:44
  TRACK 814 AUDIO
    TITLE "12:cjc171_05907"
    INDEX 01 18:12:08
  TRACK 815 AUDIO
    TITLE "0:"
    INDEX 01 18:14:48
  TRACK 816 AUDIO
    TITLE "13:cjc171_05908"
    INDEX 01 18:15:46
  TRACK 817 AUDIO
    TITLE "0:"
    INDEX 01 18:18:44
  TRACK 818 AUDIO
    TITLE "14:cjc171_05909"
    INDEX 01 18:19:08
  TRACK 819 AUDIO
    TITLE "0:"
    INDEX 01 18:21:62
  TRACK 820 AUDIO
    TITLE "15:cjc171_05910"
    INDEX 01 18:22:16
  TRACK 821 AUDIO
    TITLE "0:"
    INDEX 01 18:24:70
  TRACK 822 AUDIO
    TITLE "11:cjc171_05911"
    INDEX 01 18:25:73
  TRACK 823 AUDIO
    TITLE "0:"
    INDEX 01 18:26:75
  TRACK 824 AUDIO
    TITLE "12:cjc171_05912"
    INDEX 01 18:27:33
  TRACK 825 AUDIO
    TITLE "0:"
    INDEX 01 18:29:26
  TRACK 826 AUDIO
    TITLE "13:cjc171_05913"
    INDEX 01 18:30:26
  TRACK 827 AUDIO
    TITLE "0:"
    INDEX 01 18:32:42
  TRACK 828 AUDIO
    TITLE "14:cjc171_05914"
    INDEX 01 18:33:06
  TRACK 829 AUDIO
    TITLE "0:"
    INDEX 01 18:35:48
  TRACK 830 AUDIO
    TITLE "15:cjc171_05915"
    INDEX 01 18:36:05
  TRACK 831 AUDIO
    TITLE "0:"
    INDEX 01 18:38:47
  TRACK 832 AUDIO
    TITLE "11:cjc171_05916"
    INDEX 01 18:39:52
  TRACK 833 AUDIO
    TITLE "0:"
    INDEX 01 18:40:69
  TRACK 834 AUDIO
    TITLE "12:cjc171_05917"
    INDEX 01 18:41:33
  TRACK 835 AUDIO
    TITLE "0:"
    INDEX 01 18:42:46
  TRACK 836 AUDIO
    TITLE "13:cjc171_05918"
    INDEX 01 18:43:44
  TRACK 837 AUDIO
    TITLE "0:"
    INDEX 01 18:45:49
  TRACK 838 AUDIO
    TITLE "14:cjc171_05919"
    INDEX 01 18:46:11
  TRACK 839 AUDIO
    TITLE "0:"
    INDEX 01 18:48:51
  TRACK 840 AUDIO
    TITLE "15:cjc171_05920"
    INDEX 01 18:49:05
  TRACK 841 AUDIO
    TITLE "0:"
    INDEX 01 18:51:45
  TRACK 842 AUDIO
    TITLE "11:cjc171_05921"
    INDEX 01 18:52:51
  TRACK 843 AUDIO
    TITLE "0:"
    INDEX 01 18:53:58
  TRACK 844 AUDIO
    TITLE "12:cjc171_05922"
    INDEX 01 18:54:24
  TRACK 845 AUDIO
    TITLE "0:"
    INDEX 01 18:56:62
  TRACK 846 AUDIO
    TITLE "13:cjc171_05923"
    INDEX 01 18:57:58
  TRACK 847 AUDIO
    TITLE "0:"
    INDEX 01 18:59:64
  TRACK 848 AUDIO
    TITLE "14:cjc171_05924"
    INDEX 01 19:00:29
  TRACK 849 AUDIO
    TITLE "0:"
    INDEX 01 19:02:20
  TRACK 850 AUDIO
    TITLE "15:cjc171_05925"
    INDEX 01 19:02:51
  TRACK 851 AUDIO
    TITLE "0:"
    INDEX 01 19:04:40
  TRACK 852 AUDIO
    TITLE "11:cjc171_05926"
    INDEX 01 19:05:44
  TRACK 853 AUDIO
    TITLE "0:"
    INDEX 01 19:06:67
  TRACK 854 AUDIO
    TITLE "12:cjc171_05927"
    INDEX 01 19:07:31
  TRACK 855 AUDIO
    TITLE "0:"
    INDEX 01 19:08:63
  TRACK 856 AUDIO
    TITLE "13:cjc171_05928"
    INDEX 01 19:09:65
  TRACK 857 AUDIO
    TITLE "0:"
    INDEX 01 19:11:46
  TRACK 858 AUDIO
    TITLE "14:cjc171_05929"
    INDEX 01 19:12:10
  TRACK 859 AUDIO
    TITLE "0:"
    INDEX 01 19:14:72
  TRACK 860 AUDIO
    TITLE "15:cjc171_05930"
    INDEX 01 19:15:28
  TRACK 861 AUDIO
    TITLE "0:"
    INDEX 01 19:18:15
  TRACK 862 AUDIO
    TITLE "11:cjc171_05931"
    INDEX 01 19:19:22
  TRACK 863 AUDIO
    TITLE "0:"
    INDEX 01 19:20:43
  TRACK 864 AUDIO
    TITLE "12:cjc171_05932"
    INDEX 01 19:21:09
  TRACK 865 AUDIO
    TITLE "0:"
    INDEX 01 19:23:36
  TRACK 866 AUDIO
    TITLE "13:cjc171_05933"
    INDEX 01 19:24:37
  TRACK 867 AUDIO
    TITLE "0:"
    INDEX 01 19:26:24
  TRACK 868 AUDIO
    TITLE "14:cjc171_05934"
    INDEX 01 19:26:63
  TRACK 869 AUDIO
    TITLE "0:"
    INDEX 01 19:29:09
  TRACK 870 AUDIO
    TITLE "15:cjc171_05935"
    INDEX 01 19:29:38
  TRACK 871 AUDIO
    TITLE "0:"
    INDEX 01 19:31:61
  TRACK 872 AUDIO
    TITLE "11:cjc171_05936"
    INDEX 01 19:32:64
  TRACK 873 AUDIO
    TITLE "0:"
    INDEX 01 19:34:14
  TRACK 874 AUDIO
    TITLE "12:cjc171_05937"
    INDEX 01 19:34:53
  TRACK 875 AUDIO
    TITLE "0:"
    INDEX 01 19:36:62
  TRACK 876 AUDIO
    TITLE "13:cjc171_05938"
    INDEX 01 19:37:59
  TRACK 877 AUDIO
    TITLE "0:"
    INDEX 01 19:39:37
  TRACK 878 AUDIO
    TITLE "14:cjc171_05939"
    INDEX 01 19:40:01
  TRACK 879 AUDIO
    TITLE "0:"
    INDEX 01 19:41:51
  TRACK 880 AUDIO
    TITLE "15:cjc171_05940"
    INDEX 01 19:42:06
  TRACK 881 AUDIO
    TITLE "0:"
    INDEX 01 19:43:56
  TRACK 882 AUDIO
    TITLE "11:cjc171_05941"
    INDEX 01 19:44:61
  TRACK 883 AUDIO
    TITLE "0:"
    INDEX 01 19:46:03
  TRACK 884 AUDIO
    TITLE "12:cjc171_05942"
    INDEX 01 19:46:42
  TRACK 885 AUDIO
    TITLE "0:"
    INDEX 01 19:49:51
  TRACK 886 AUDIO
    TITLE "13:cjc171_05943"
    INDEX 01 19:50:48
  TRACK 887 AUDIO
    TITLE "0:"
    INDEX 01 19:53:52
  TRACK 888 AUDIO
    TITLE "14:cjc171_05944"
    INDEX 01 19:54:17
  TRACK 889 AUDIO
    TITLE "0:"
    INDEX 01 19:56:47
  TRACK 890 AUDIO
    TITLE "15:cjc171_05945"
    INDEX 01 19:57:01
  TRACK 891 AUDIO
    TITLE "0:"
    INDEX 01 19:59:31
  TRACK 892 AUDIO
    TITLE "11:cjc171_05946"
    INDEX 01 20:00:37
  TRACK 893 AUDIO
    TITLE "0:"
    INDEX 01 20:01:70
  TRACK 894 AUDIO
    TITLE "12:cjc171_05947"
    INDEX 01 20:02:32
  TRACK 895 AUDIO
    TITLE "0:"
    INDEX 01 20:03:47
  TRACK 896 AUDIO
    TITLE "13:cjc171_05948"
    INDEX 01 20:04:44
  TRACK 897 AUDIO
    TITLE "0:"
    INDEX 01 20:06:63
  TRACK 898 AUDIO
    TITLE "14:cjc171_05949"
    INDEX 01 20:07:29
  TRACK 899 AUDIO
    TITLE "0:"
    INDEX 01 20:10:06
  TRACK 900 AUDIO
    TITLE "15:cjc171_05950"
    INDEX 01 20:10:35
  TRACK 901 AUDIO
    TITLE "0:"
    INDEX 01 20:13:14
  TRACK 902 AUDIO
    TITLE "11:cjc171_05951"
    INDEX 01 20:14:13
  TRACK 903 AUDIO
    TITLE "0:"
    INDEX 01 20:15:38
  TRACK 904 AUDIO
    TITLE "12:cjc171_05952"
    INDEX 01 20:16:01
  TRACK 905 AUDIO
    TITLE "0:"
    INDEX 01 20:17:37
  TRACK 906 AUDIO
    TITLE "13:cjc171_05953"
    INDEX 01 20:18:39
  TRACK 907 AUDIO
    TITLE "0:"
    INDEX 01 20:20:53
  TRACK 908 AUDIO
    TITLE "14:cjc171_05954"
    INDEX 01 20:21:13
  TRACK 909 AUDIO
    TITLE "0:"
    INDEX 01 20:23:40
  TRACK 910 AUDIO
    TITLE "15:cjc171_05955"
    INDEX 01 20:23:61
  TRACK 911 AUDIO
    TITLE "0:"
    INDEX 01 20:26:13
  TRACK 912 AUDIO
    TITLE "11:cjc171_05956"
    INDEX 01 20:27:08
  TRACK 913 AUDIO
    TITLE "0:"
    INDEX 01 20:28:31
  TRACK 914 AUDIO
    TITLE "12:cjc171_05957"
    INDEX 01 20:28:68
  TRACK 915 AUDIO
    TITLE "0:"
    INDEX 01 20:31:20
  TRACK 916 AUDIO
    TITLE "13:cjc171_05958"
    INDEX 01 20:32:19
  TRACK 917 AUDIO
    TITLE "0:"
    INDEX 01 20:34:28
  TRACK 918 AUDIO
    TITLE "14:cjc171_05959"
    INDEX 01 20:34:65
  TRACK 919 AUDIO
    TITLE "0:"
    INDEX 01 20:37:09
  TRACK 920 AUDIO
    TITLE "15:cjc171_05960"
    INDEX 01 20:37:34
  TRACK 921 AUDIO
    TITLE "0:"
    INDEX 01 20:39:51
  TRACK 922 AUDIO
    TITLE "11:cjc171_05961"
    INDEX 01 20:40:46
  TRACK 923 AUDIO
    TITLE "0:"
    INDEX 01 20:41:73
  TRACK 924 AUDIO
    TITLE "12:cjc171_05962"
    INDEX 01 20:42:31
  TRACK 925 AUDIO
    TITLE "0:"
    INDEX 01 20:45:12
  TRACK 926 AUDIO
    TITLE "13:cjc171_05963"
    INDEX 01 20:46:13
  TRACK 927 AUDIO
    TITLE "0:"
    INDEX 01 20:49:39
  TRACK 928 AUDIO
    TITLE "14:cjc171_05964"
    INDEX 01 20:50:03
  TRACK 929 AUDIO
    TITLE "0:"
    INDEX 01 20:53:02
  TRACK 930 AUDIO
    TITLE "15:cjc171_05965"
    INDEX 01 20:53:29
  TRACK 931 AUDIO
    TITLE "0:"
    INDEX 01 20:56:27
  TRACK 932 AUDIO
    TITLE "11:cjc171_05966"
    INDEX 01 20:57:21
  TRACK 933 AUDIO
    TITLE "0:"
    INDEX 01 20:58:32
  TRACK 934 AUDIO
    TITLE "12:cjc171_05967"
    INDEX 01 20:58:71
  TRACK 935 AUDIO
    TITLE "0:"
    INDEX 01 21:00:08
  TRACK 936 AUDIO
    TITLE "13:cjc171_05968"
    INDEX 01 21:01:07
  TRACK 937 AUDIO
    TITLE "0:"
    INDEX 01 21:03:08
  TRACK 938 AUDIO
    TITLE "14:cjc171_05969"
    INDEX 01 21:03:41
  TRACK 939 AUDIO
    TITLE "0:"
    INDEX 01 21:06:14
  TRACK 940 AUDIO
    TITLE "15:cjc171_05970"
    INDEX 01 21:06:40
  TRACK 941 AUDIO
    TITLE "0:"
    INDEX 01 21:09:12
  TRACK 942 AUDIO
    TITLE "11:cjc171_05971"
    INDEX 01 21:10:12
  TRACK 943 AUDIO
    TITLE "0:"
    INDEX 01 21:11:15
  TRACK 944 AUDIO
    TITLE "12:cjc171_05972"
    INDEX 01 21:11:54
  TRACK 945 AUDIO
    TITLE "0:"
    INDEX 01 21:13:59
  TRACK 946 AUDIO
    TITLE "13:cjc171_05973"
    INDEX 01 21:14:61
  TRACK 947 AUDIO
    TITLE "0:"
    INDEX 01 21:16:52
  TRACK 948 AUDIO
    TITLE "14:cjc171_05974"
    INDEX 01 21:17:12
  TRACK 949 AUDIO
    TITLE "0:"
    INDEX 01 21:18:68
  TRACK 950 AUDIO
    TITLE "15:cjc171_05975"
    INDEX 01 21:19:23
  TRACK 951 AUDIO
    TITLE "0:"
    INDEX 01 21:21:04
  TRACK 952 AUDIO
    TITLE "11:cjc171_05976"
    INDEX 01 21:22:05
  TRACK 953 AUDIO
    TITLE "0:"
    INDEX 01 21:23:20
  TRACK 954 AUDIO
    TITLE "12:cjc171_05977"
    INDEX 01 21:23:56
  TRACK 955 AUDIO
    TITLE "0:"
    INDEX 01 21:25:55
  TRACK 956 AUDIO
    TITLE "13:cjc171_05978"
    INDEX 01 21:26:54
  TRACK 957 AUDIO
    TITLE "0:"
    INDEX 01 21:28:55
  TRACK 958 AUDIO
    TITLE "14:cjc171_05979"
    INDEX 01 21:29:13
  TRACK 959 AUDIO
    TITLE "0:"
    INDEX 01 21:31:39
  TRACK 960 AUDIO
    TITLE "15:cjc171_05980"
    INDEX 01 21:31:59
  TRACK 961 AUDIO
    TITLE "0:"
    INDEX 01 21:34:08
  TRACK 962 AUDIO
    TITLE "11:cjc171_05981"
    INDEX 01 21:35:04
  TRACK 963 AUDIO
    TITLE "0:"
    INDEX 01 21:36:23
  TRACK 964 AUDIO
    TITLE "12:cjc171_05982"
    INDEX 01 21:36:58
  TRACK 965 AUDIO
    TITLE "0:"
    INDEX 01 21:39:33
  TRACK 966 AUDIO
    TITLE "13:cjc171_05983"
    INDEX 01 21:40:35
  TRACK 967 AUDIO
    TITLE "0:"
    INDEX 01 21:42:67
  TRACK 968 AUDIO
    TITLE "14:cjc171_05984"
    INDEX 01 21:43:27
  TRACK 969 AUDIO
    TITLE "0:"
    INDEX 01 21:45:32
  TRACK 970 AUDIO
    TITLE "15:cjc171_05985"
    INDEX 01 21:45:51
  TRACK 971 AUDIO
    TITLE "0:"
    INDEX 01 21:47:56
  TRACK 972 AUDIO
    TITLE "11:cjc171_05986"
    INDEX 01 21:48:54
  TRACK 973 AUDIO
    TITLE "0:"
    INDEX 01 21:49:67
  TRACK 974 AUDIO
    TITLE "12:cjc171_05987"
    INDEX 01 21:50:29
  TRACK 975 AUDIO
    TITLE "0:"
    INDEX 01 21:53:12
  TRACK 976 AUDIO
    TITLE "13:cjc171_05988"
    INDEX 01 21:54:09
  TRACK 977 AUDIO
    TITLE "0:"
    INDEX 01 21:56:14
  TRACK 978 AUDIO
    TITLE "14:cjc171_05989"
    INDEX 01 21:56:49
  TRACK 979 AUDIO
    TITLE "0:"
    INDEX 01 21:58:40
  TRACK 980 AUDIO
    TITLE "15:cjc171_05990"
    INDEX 01 21:58:62
  TRACK 981 AUDIO
    TITLE "0:"
    INDEX 01 22:00:53
  TRACK 982 AUDIO
    TITLE "11:cjc171_05991"
    INDEX 01 22:01:48
  TRACK 983 AUDIO
    TITLE "0:"
    INDEX 01 22:02:75
  TRACK 984 AUDIO
    TITLE "12:cjc171_05992"
    INDEX 01 22:03:36
  TRACK 985 AUDIO
    TITLE "0:"
    INDEX 01 22:06:67
  TRACK 986 AUDIO
    TITLE "13:cjc171_05993"
    INDEX 01 22:07:69
  TRACK 987 AUDIO
    TITLE "0:"
    INDEX 01 22:10:61
  TRACK 988 AUDIO
    TITLE "14:cjc171_05994"
    INDEX 01 22:11:21
  TRACK 989 AUDIO
    TITLE "0:"
    INDEX 01 22:13:59
  TRACK 990 AUDIO
    TITLE "15:cjc171_05995"
    INDEX 01 22:14:04
  TRACK 991 AUDIO
    TITLE "0:"
    INDEX 01 22:16:42
  TRACK 992 AUDIO
    TITLE "11:cjc171_05996"
    INDEX 01 22:17:36
  TRACK 993 AUDIO
    TITLE "0:"
    INDEX 01 22:18:63
  TRACK 994 AUDIO
    TITLE "12:cjc171_05997"
    INDEX 01 22:19:23
  TRACK 995 AUDIO
    TITLE "0:"
    INDEX 01 22:20:50
  TRACK 996 AUDIO
    TITLE "13:cjc171_05998"
    INDEX 01 22:21:49
  TRACK 997 AUDIO
    TITLE "0:"
    INDEX 01 22:24:04
  TRACK 998 AUDIO
    TITLE "14:cjc171_05999"
    INDEX 01 22:24:38
  TRACK 999 AUDIO
    TITLE "0:"
    INDEX 01 22:27:03
  TRACK 1000 AUDIO
    TITLE "15:cjc171_06000"
    INDEX 01 22:27:20
  TRACK 1001 AUDIO
    TITLE "0:"
    INDEX 01 22:29:58
